<?xml version="1.0" standalone="no"?>
<!DOCTYPE svg PUBLIC "-//W3C//DTD SVG 20010904//EN"
 "http://www.w3.org/TR/2001/REC-SVG-20010904/DTD/svg10.dtd">
<svg version="1.0" xmlns="http://www.w3.org/2000/svg"
 width="300.000000pt" height="300.000000pt" viewBox="0 0 300.000000 300.000000"
 preserveAspectRatio="xMidYMid meet">
<metadata>
Created by potrace 1.10, written by Peter Selinger 2001-2011
</metadata>
<g transform="translate(0.000000,300.000000) scale(0.100000,-0.100000)"
fill="#000000" stroke="none">
<path d="M1118 1735 c-14 -14 -206 -48 -303 -54 l-110 -6 -3 -52 c-3 -54 18
-123 39 -123 6 0 8 7 5 17 -14 35 -27 107 -22 120 4 9 24 13 64 13 57 0 233
29 302 50 31 9 37 8 53 -11 16 -21 22 -50 18 -96 -1 -16 3 -21 12 -17 11 4 16
-7 22 -43 13 -91 46 -208 73 -258 26 -48 29 -50 75 -53 42 -3 51 0 76 27 30
32 76 131 61 131 -6 0 -17 -17 -25 -37 -9 -20 -27 -52 -41 -70 -21 -28 -32
-33 -65 -33 -38 0 -40 2 -68 60 -29 60 -64 190 -76 286 -8 65 12 93 74 101 33
5 39 8 27 15 -22 12 -69 1 -100 -23 l-24 -19 -7 30 c-7 33 -42 60 -57 45z"/>
<path d="M1865 1725 c-22 -9 -47 -22 -55 -31 -31 -31 -22 -334 13 -411 11 -24
54 -38 98 -31 22 3 24 9 29 70 6 78 -10 76 -18 -1 l-5 -51 -37 0 c-21 0 -42 6
-48 13 -27 34 -53 290 -35 357 11 45 61 71 149 78 81 6 142 -11 193 -54 76
-66 76 -149 -1 -205 -24 -17 -34 -29 -25 -29 9 0 37 19 62 43 38 37 45 49 45
83 0 56 -36 113 -94 148 -43 27 -58 30 -140 33 -63 2 -103 -2 -131 -12z"/>
<path d="M1650 1700 c0 -5 16 -10 35 -10 22 0 43 -8 56 -21 19 -19 21 -29 16
-78 -8 -72 -51 -241 -73 -283 -39 -78 -80 -89 -139 -37 -37 33 -47 29 -17 -7
43 -51 109 -59 147 -18 43 46 105 268 105 377 0 53 -35 87 -90 87 -22 0 -40
-4 -40 -10z"/>
<path d="M1435 1629 c-5 -7 4 -8 27 -4 45 9 63 -9 72 -71 6 -49 46 -168 53
-160 2 2 -5 34 -16 71 -12 37 -21 77 -21 90 0 12 -5 36 -11 54 -10 28 -15 31
-54 31 -24 0 -47 -5 -50 -11z"/>
<path d="M1941 1560 c-1 -15 4 -31 11 -38 15 -15 94 -16 103 -2 4 7 -2 9 -19
4 -41 -10 -73 3 -84 33 l-10 28 -1 -25z"/>
<path d="M1050 1489 c0 -17 5 -72 12 -122 12 -88 12 -90 -11 -108 -14 -11 -39
-19 -61 -19 -43 0 -55 18 -65 105 -8 65 -34 145 -46 145 -6 0 -7 -4 -4 -10 3
-5 17 -62 30 -127 13 -64 31 -123 38 -131 19 -18 103 -6 127 18 19 19 19 35 4
170 -4 41 -7 80 -6 87 2 6 -2 14 -8 18 -6 4 -10 -6 -10 -26z"/>
<path d="M743 1132 c-37 -4 -42 -16 -13 -32 11 -6 20 -20 20 -30 0 -11 7 -20
15 -20 11 0 15 8 13 26 -2 15 2 29 9 31 7 2 13 -7 15 -23 3 -29 28 -47 28 -20
0 18 16 22 22 5 5 -15 100 -17 105 -1 3 6 -1 12 -7 12 -6 0 -18 7 -26 15 -14
13 -13 15 5 15 12 0 21 6 21 15 0 9 -9 15 -22 15 -32 0 -45 -11 -51 -40 -4
-21 -4 -20 -6 8 -1 22 -6 32 -16 32 -9 0 -15 -7 -13 -16 2 -10 -3 -19 -9 -21
-8 -3 -13 4 -13 15 0 20 -7 22 -77 14z"/>
<path d="M1095 1133 c-11 -2 -27 -7 -35 -10 -25 -10 -50 -10 -50 -1 0 4 -7 8
-16 8 -12 0 -14 -7 -9 -32 4 -18 9 -36 11 -39 7 -12 65 -4 74 11 8 12 10 12
15 -2 5 -13 19 -17 66 -16 75 1 95 14 82 54 -8 23 -16 29 -39 29 -24 0 -30 -5
-32 -27 -4 -31 -16 -35 -38 -13 -14 13 -13 15 6 15 13 0 20 5 18 13 -5 13 -23
17 -53 10z"/>
<path d="M1285 1133 c-47 -10 -49 -13 -27 -34 12 -11 22 -27 22 -35 0 -9 6
-14 13 -11 6 2 12 13 12 24 0 12 3 25 8 29 4 4 7 13 7 21 0 13 -1 14 -35 6z"/>
<path d="M1490 1125 c0 -13 -3 -13 -20 -3 -16 10 -24 10 -41 0 -15 -10 -24
-11 -32 -3 -18 18 -46 12 -63 -14 -13 -20 -14 -28 -4 -40 17 -20 47 -19 60 3
10 16 10 16 20 0 14 -23 46 -23 58 -2 6 11 11 13 16 5 11 -17 26 -13 27 7 0
14 3 13 16 -5 23 -34 33 -28 33 18 0 35 -2 40 -19 34 -11 -3 -22 -1 -26 5 -9
15 -25 12 -25 -5z"/>
<path d="M1676 1131 c-3 -5 -24 -7 -46 -4 l-40 6 0 -42 c0 -46 10 -51 40 -21
11 11 24 20 29 20 5 0 11 -9 14 -20 5 -21 27 -28 27 -9 0 6 5 7 13 2 23 -14
84 -13 97 2 11 13 15 13 33 0 33 -23 57 -19 57 10 0 14 5 25 10 25 6 0 10 -11
10 -25 0 -21 5 -25 28 -25 15 0 33 5 39 11 8 8 16 7 30 -2 22 -13 53 -7 53 11
0 5 -11 10 -25 10 -27 0 -34 17 -10 26 28 11 63 -5 69 -32 7 -27 31 -28 31 -1
0 8 4 19 8 23 4 4 7 14 7 23 0 13 -12 16 -63 16 -65 0 -97 -14 -97 -41 0 -8
-7 -14 -16 -14 -8 0 -13 4 -10 9 4 5 0 12 -6 14 -8 3 -6 6 5 6 9 1 17 8 17 16
0 11 -13 14 -57 12 -32 -2 -57 -6 -55 -10 12 -32 14 -38 10 -42 -10 -10 -47 9
-51 26 -3 13 -14 19 -32 19 -20 0 -29 -7 -39 -31 -8 -19 -16 -27 -20 -20 -4 6
-4 16 -1 21 4 6 1 17 -5 25 -14 17 -46 20 -54 6z"/>
</g>
</svg>
